<?xml version="1.0" encoding="utf-8"?>
<!-- Generator: Adobe Illustrator 18.1.0, SVG Export Plug-In . SVG Version: 6.00 Build 0)  -->
<!DOCTYPE svg PUBLIC "-//W3C//DTD SVG 1.1//EN" "http://www.w3.org/Graphics/SVG/1.1/DTD/svg11.dtd">
<svg version="1.1" id="Layer_1" xmlns="http://www.w3.org/2000/svg" xmlns:xlink="http://www.w3.org/1999/xlink" x="0px" y="0px"
	 width="202px" height="39.9px" viewBox="0 0 202 39.9" enable-background="new 0 0 202 39.9" xml:space="preserve">
<path fill="#2A2A2A" d="M14.5,32.6v-3.7h0c-1.8,0-3.7-0.7-5.1-2.1l0,0c-1.3-1.3-2.1-3.1-2.1-5.1H0h0c0,0.4,0,0.7,0,1.1
	c0,0,0,0.1,0,0.1c0.1,0.7,0.2,1.4,0.3,2.1c0,0,0,0.1,0,0.1c0.2,0.7,0.4,1.3,0.6,2c0,0,0,0.1,0,0.1c0.2,0.6,0.5,1.2,0.9,1.8
	c0,0,0,0.1,0.1,0.1c0.3,0.6,0.7,1.1,1.1,1.6c0,0,0.1,0.1,0.1,0.1c0.4,0.4,0.7,0.9,1.1,1.3l0,0c1.1,1.1,2.3,2,3.6,2.6
	c0,0,0.1,0,0.1,0.1c0.3,0.2,0.6,0.3,0.9,0.4c0,0,0,0,0,0c0.2,0.1,0.4,0.2,0.6,0.2c0,0,0.1,0,0.1,0c0.2,0.1,0.4,0.1,0.6,0.2
	c0,0,0.1,0,0.1,0c0.2,0.1,0.3,0.1,0.5,0.1c0.1,0,0.1,0,0.2,0c0.2,0,0.3,0.1,0.5,0.1c0.1,0,0.1,0,0.2,0c0.2,0,0.4,0.1,0.5,0.1
	c0.1,0,0.1,0,0.2,0c0.2,0,0.4,0.1,0.6,0.1c0,0,0,0,0.1,0c0.5,0,1,0.1,1.5,0.1L14.5,32.6C14.5,32.6,14.5,32.6,14.5,32.6L14.5,32.6
	L14.5,32.6z"/>
<path fill="#2A2A2A" d="M29,21.7L29,21.7h-3.6c0,2.8-1.1,5.6-3.2,7.7l0,0c-2,2-4.7,3.2-7.7,3.2v3.6l0,0v3.6c5,0,9.5-2,12.8-5.3l0,0
	c3.5-3.5,5.3-8.2,5.3-12.8H29z"/>
<path fill="#2A2A2A" d="M29.9,6.4L29.9,6.4C25.6,2.1,20.1,0,14.5,0l0,3.6h0v3.6c3.7,0,7.4,1.4,10.3,4.2v0c2.6,2.6,4.3,6.3,4.3,10.3
	h3.6h3.6C36.2,15.7,33.8,10.3,29.9,6.4z"/>
<path fill="#2A2A2A" d="M14.5,14.5c-4,0-7.2,3.2-7.2,7.2l0,0h7.2h7.2l0,0C21.7,17.7,18.5,14.5,14.5,14.5z"/>
<g>
	<path fill="#2A2A2A" d="M59.8,25.6c-0.9,0.9-2.2,1.4-3.6,1.4c-2.4,0-4.5-1.7-5-3.9h5.1h5h3c0.1-0.4,0.1-0.9,0.1-1.3
		c0-4.5-3.6-8.1-8.1-8.1c-4.5,0-8.1,3.6-8.1,8.1c0,4.5,3.6,8.1,8.1,8.1c3.1,0,5.8-1.8,7.2-4.3H59.8z M56.3,16.6c2.4,0,4.4,1.7,5,3.9
		H51.2C51.8,18.3,53.8,16.6,56.3,16.6z"/>
	<path fill="#2A2A2A" d="M86,25.6c-0.9,0.9-2.2,1.4-3.6,1.4c-2.4,0-4.5-1.7-5-3.9h5.1h5h3c0.1-0.4,0.1-0.9,0.1-1.3
		c0-4.5-3.6-8.1-8.1-8.1c-4.5,0-8.1,3.6-8.1,8.1c0,4.5,3.6,8.1,8.1,8.1c3.1,0,5.8-1.8,7.2-4.3H86z M82.5,16.6c2.4,0,4.5,1.7,5,3.9
		H77.4C78,18.3,80,16.6,82.5,16.6z"/>
	<path fill="#2A2A2A" d="M130.2,25.6c-0.9,0.9-2.2,1.4-3.6,1.4c-2.4,0-4.5-1.7-5-3.9h5.1h5h3c0.1-0.4,0.1-0.9,0.1-1.3
		c0-4.5-3.6-8.1-8.1-8.1c-4.5,0-8.1,3.6-8.1,8.1c0,4.5,3.6,8.1,8.1,8.1c3.1,0,5.8-1.8,7.2-4.3H130.2z M126.6,16.6
		c2.4,0,4.4,1.7,5,3.9h-10.1C122.2,18.3,124.2,16.6,126.6,16.6z"/>
	<path fill="#2A2A2A" d="M169.2,30c-3.3,0-6.3-1.9-6.3-6.1v-9.8h3.1v9.5c0,2.5,1.7,3.5,3.2,3.5c1.5,0,3.2-1,3.2-3.5v-9.5h3.1v9.8
		C175.5,28.1,172.5,30,169.2,30L169.2,30z"/>
	<path fill="#2A2A2A" d="M73.3,30c-3.7,0-6-2.4-6-6.1v-14h3.1v13.7c0,2.2,1.1,3.5,3,3.5l0.2,0V30H73.3z"/>
	<path fill="#2A2A2A" d="M110.2,13.8c-2.1,0-3.8,0.8-5.1,2.5c-1-1.6-2.7-2.5-4.7-2.5c-1.7,0-3.1,0.6-4.2,1.8v-1.5H93v15.6h3.2v-8.8
		c0-2.4,1.5-4.1,3.6-4.1c2.1,0,3.3,1.4,3.3,3.9v9.1h3.1v-8.9c0-2.8,1.8-4,3.6-4c2.1,0,3.3,1.4,3.3,3.9v9h3.2v-9.5
		C116.1,16.3,113.8,13.8,110.2,13.8z"/>
	<path fill="#2A2A2A" d="M196.1,13.8c-2.1,0-3.8,0.8-5.1,2.5c-1-1.6-2.7-2.5-4.7-2.5c-1.7,0-3.1,0.6-4.2,1.8v-1.5h-3.2v15.6h3.2
		v-8.8c0-2.4,1.5-4.1,3.6-4.1c2.1,0,3.3,1.4,3.3,3.9v9.1h3.1v-8.9c0-2.8,1.8-4,3.6-4c2.1,0,3.3,1.4,3.3,3.9v9h3.2v-9.5
		C202,16.3,199.8,13.8,196.1,13.8z"/>
	<path fill="#2A2A2A" d="M144.6,13.8c-1.8,0-3.1,0.6-4.3,1.9v-1.6h-3.2v15.6h3.2v-8.9c0-2.4,1.3-4.1,3.6-4.1c2.3,0,3.3,1.4,3.3,3.9
		v9h3.2v-9.6C150.4,16.3,148.3,13.8,144.6,13.8z"/>
	<g>
		<g>
			<path fill="#2A2A2A" d="M159.6,30c-3.7,0-6-2.4-6-6.1V11.5h3.1v2.5h3v3h-3v6.5c0,2.2,1.1,3.5,3,3.5l0.2,0V30H159.6z"/>
		</g>
	</g>
</g>
</svg>
